<svg xmlns="http://www.w3.org/2000/svg" width="12.203" height="12.203" viewBox="0 0 12.203 12.203">
  <g id="Group_3167" data-name="Group 3167" transform="translate(0 0)">
    <path id="Path_77" data-name="Path 77" d="M1114.564,87.943h-4.683a3.76,3.76,0,0,0-3.76,3.76v4.683a3.76,3.76,0,0,0,3.76,3.76h4.683a3.76,3.76,0,0,0,3.76-3.76V91.7A3.76,3.76,0,0,0,1114.564,87.943Zm2.589,7.994a3.038,3.038,0,0,1-3.038,3.038h-3.785a3.038,3.038,0,0,1-3.038-3.038V92.152a3.039,3.039,0,0,1,3.038-3.038h3.785a3.039,3.039,0,0,1,3.038,3.038Z" transform="translate(-1106.121 -87.943)" fill="#abadc1"/>
    <path id="Path_78" data-name="Path 78" d="M1142.5,119.567a3.214,3.214,0,1,0,3.214,3.214A3.214,3.214,0,0,0,1142.5,119.567Zm0,5.148a1.934,1.934,0,1,1,1.934-1.934A1.934,1.934,0,0,1,1142.5,124.715Z" transform="translate(-1136.237 -116.658)" fill="#abadc1"/>
    <path id="Path_79" data-name="Path 79" d="M1199.515,110.948a.817.817,0,1,1-.818-.818A.818.818,0,0,1,1199.515,110.948Z" transform="translate(-1189.44 -108.089)" fill="#abadc1"/>
  </g>
</svg>
