<svg xmlns="http://www.w3.org/2000/svg" width="13.473" height="10.95" viewBox="0 0 13.473 10.95">
  <path id="Path_8523" data-name="Path 8523" d="M779.89,959.968a7.812,7.812,0,0,0,7.865-7.866c0-.12,0-.239-.008-.357a5.607,5.607,0,0,0,1.379-1.432,5.535,5.535,0,0,1-1.587.435,2.782,2.782,0,0,0,1.216-1.529,5.557,5.557,0,0,1-1.756.672,2.765,2.765,0,0,0-4.781,1.89,2.828,2.828,0,0,0,.071.631,7.854,7.854,0,0,1-5.7-2.889,2.766,2.766,0,0,0,.856,3.69,2.745,2.745,0,0,1-1.252-.346c0,.012,0,.023,0,.035a2.765,2.765,0,0,0,2.217,2.71,2.771,2.771,0,0,1-.727.1,2.73,2.73,0,0,1-.52-.051,2.768,2.768,0,0,0,2.582,1.921,5.543,5.543,0,0,1-3.433,1.183,5.613,5.613,0,0,1-.659-.039,7.818,7.818,0,0,0,4.237,1.243" transform="translate(-775.653 -949.018)" fill="#abadc1"/>
</svg>
